<svg xmlns="http://www.w3.org/2000/svg" version="1.1" xmlns:xlink="http://www.w3.org/1999/xlink" width="512" height="512" x="0" y="0" viewBox="0 0 32 32" style="enable-background:new 0 0 512 512" xml:space="preserve" fill-rule="evenodd"><g><path d="M101.833 18.008H92.5a1 1 0 0 0-1 1v2.686a.499.499 0 0 1-.773.419c-.075-.049-6.982-5.675-7-5.686a.501.501 0 0 1 0-.838c.141-.092 6.839-5.582 7-5.686a.501.501 0 0 1 .773.419v2.686a1 1 0 0 0 1 1s6.485 0 9.338-.015a1.987 1.987 0 0 0 1.876-2.617C101.8 5.922 96.604 2.008 90.5 2.008c-7.727 0-14 6.273-14 14s6.273 14 14 14c6.103 0 11.299-3.913 13.228-9.361l.01-.028a2 2 0 0 0-1.906-2.611zm-60.347 0a1.997 1.997 0 0 0-1.906 2.611l.01.028c1.929 5.448 7.125 9.361 13.228 9.361 7.727 0 14-6.273 14-14s-6.273-14-14-14c-6.104 0-11.3 3.914-13.214 9.368a1.987 1.987 0 0 0 1.881 2.617c2.848.015 9.333.015 9.333.015a1 1 0 0 0 1-1v-2.686a.5.5 0 0 1 .773-.419c.161.104 6.859 5.594 7 5.686a.501.501 0 0 1 0 .838c-.018.011-6.925 5.637-7 5.686a.499.499 0 0 1-.773-.419v-2.686a1 1 0 0 0-1-1zM14 4.502a1.997 1.997 0 0 0-2.611-1.906l-.028.009C5.913 4.535 2 9.731 2 15.833c0 7.727 6.273 14 14 14s14-6.273 14-14c0-6.103-3.915-11.3-9.368-13.214l-.026-.008a1.986 1.986 0 0 0-2.591 1.89C18 7.348 18 13.834 18 13.834a1 1 0 0 0 1 1h2.686a.499.499 0 0 1 .419.772c-.105.161-5.594 6.859-5.686 7a.5.5 0 0 1-.838 0c-.011-.017-5.637-6.924-5.686-7a.499.499 0 0 1 .419-.772H13a1 1 0 0 0 1-1zm-37 22.997v-9.333a1 1 0 0 0-1-1h-2.686a.499.499 0 0 1-.419-.772c.049-.076 5.675-6.983 5.686-7a.5.5 0 0 1 .838 0c.092.141 5.581 6.839 5.686 7a.499.499 0 0 1-.419.772H-18a1 1 0 0 0-1 1s0 6.486.015 9.338a1.984 1.984 0 0 0 2.591 1.885l.026-.008C-10.915 27.467-7 22.27-7 16.167c0-7.727-6.273-14-14-14s-14 6.273-14 14c0 6.102 3.913 11.298 9.361 13.228a1.997 1.997 0 0 0 1.818-.28c.517-.377.822-.978.821-1.617z" fill="#000000" opacity="1" data-original="#000000"></path></g></svg>