<?xml version="1.0" encoding="UTF-8"?>
<svg xmlns="http://www.w3.org/2000/svg" xmlns:xlink="http://www.w3.org/1999/xlink" viewBox="0 0 233.16 254.94">
  <defs>
    <style>
      .cls-1 {
        isolation: isolate;
      }

      .cls-2 {
        fill: url(#linear-gradient);
      }

      .cls-3 {
        mix-blend-mode: darken;
      }

      .cls-4 {
        fill: #ffffff;
      }
    </style>
    <linearGradient id="linear-gradient" x1="11.21" y1="79.67" x2="223.29" y2="79.67" gradientUnits="userSpaceOnUse">
      <stop offset="0" stop-color="#32d8a6"/>
      <stop offset="1" stop-color="#32d8a6"/>
    </linearGradient>
  </defs>
  <g class="cls-1">
    <g id="Layer_2" data-name="Layer 2">
      <g id="Layer_1-2" data-name="Layer 1">
        <g>
          <path class="cls-2" d="M18.41,131.9c-.26,0-.53-.01-.8-.04-3.95-.44-6.79-3.99-6.36-7.94,4.28-38.71,29.6-72.54,66.09-88.28,19.82-8.55,40.98-10.42,62.9-5.58,17.61,3.9,29.53,10.9,31.74,12.27,43.12,26.63,50.26,72.54,51.26,81.47,.44,3.95-2.4,7.5-6.35,7.94-3.95,.44-7.5-2.4-7.94-6.35-.86-7.77-7.07-47.7-44.52-70.83-1.59-.98-39.41-23.83-81.39-5.72-31.75,13.7-53.78,43.07-57.49,76.65-.41,3.68-3.52,6.4-7.14,6.4Z"/>
          <g id="Line" class="cls-3">
            <path class="cls-4" d="M171.19,148.17L122.1,31.59c-2.45-5.52-8.59-5.52-11.04,0l-49.09,116.58c-1.23,2.45-.61,4.91,1.23,6.75,11.66,12.27,19.64,28.23,22.7,44.79h-6.14c-3.68,0-6.14,2.45-6.14,6.14v42.95c0,3.68,2.45,6.14,6.14,6.14h73.63c3.68,0,6.14-2.45,6.14-6.14v-42.95c0-3.68-2.45-6.14-6.14-6.14h-5.52c3.07-16.57,10.43-32.52,22.09-44.79,1.84-1.84,2.45-4.3,1.23-6.75Zm-54.61-3.68c3.68,0,6.14,2.45,6.14,6.14s-2.45,6.14-6.14,6.14-6.14-2.45-6.14-6.14,2.45-6.14,6.14-6.14Zm30.68,98.18h-61.36v-30.68h61.36v30.68Zm-12.27-42.95h-36.82c-2.45-18.41-10.43-36.2-23.32-50.32l35.59-84.68v68.72c-9.82,3.68-14.73,14.11-11.04,23.32,3.68,9.82,14.11,14.73,23.32,11.04,9.2-3.68,14.73-14.11,11.04-23.32-1.84-5.52-6.14-9.2-11.04-11.04V64.72l35.59,84.68c-12.27,14.11-20.25,31.91-23.32,50.32h0Z"/>
            <path class="cls-4" d="M231.94,12.27c-3.68-9.82-14.11-14.73-23.32-11.04-5.52,1.84-9.2,6.14-11.04,11.04h-62.59V6.14c0-3.39-2.75-6.14-6.14-6.14h-24.54c-3.39,0-6.14,2.75-6.14,6.14v6.14H35.58C32.52,2.45,22.08-2.45,12.27,1.23,2.45,4.91-2.46,14.73,1.22,24.54c3.68,9.82,13.5,14.73,23.32,11.04,5.52-1.84,9.2-6.14,11.04-11.04l60.8,.17c.59-.06,1.19-.12,1.79-.17v.17h1v5.32c0,2.07,.78,4.1,2.3,5.51,.78,.73,1.74,1.28,2.83,1.28h24.54c3.39,0,6.14-2.75,6.14-6.14v-6.14c1.24,.11,62.59,0,62.59,0,3.68,9.82,14.11,14.73,23.32,11.04,9.82-3.68,14.73-14.11,11.04-23.32ZM18.4,24.54c-3.68,0-6.14-2.45-6.14-6.14s2.45-6.14,6.14-6.14,6.14,2.45,6.14,6.14-2.45,6.14-6.14,6.14Zm104.31,0h-12.27V12.27h12.27v12.27Zm92.04,0c-3.68,0-6.14-2.45-6.14-6.14s2.45-6.14,6.14-6.14,6.14,2.45,6.14,6.14-2.45,6.14-6.14,6.14Z"/>
          </g>
        </g>
      </g>
    </g>
  </g>
</svg>