<?xml version="1.0" encoding="UTF-8"?>
<svg xmlns="http://www.w3.org/2000/svg" xmlns:xlink="http://www.w3.org/1999/xlink" viewBox="0 0 234.52 182.79">
  <defs>
    <style>
      .cls-1 {
        isolation: isolate;
      }

      .cls-2 {
        fill: url(#linear-gradient);
      }

      .cls-3 {
        mix-blend-mode: darken;
      }

      .cls-4 {
        fill: #ffffff;
      }
    </style>
    <linearGradient id="linear-gradient" x1="117.26" y1="47.2" x2="117.26" y2="184.92" gradientUnits="userSpaceOnUse">
      <stop offset="0" stop-color="#69b42d"/>
      <stop offset="1" stop-color="#009f6f"/>
    </linearGradient>
  </defs>
  <g class="cls-1">
    <g id="Layer_2" data-name="Layer 2">
      <g id="Layer_1-2" data-name="Layer 1">
        <g>
          <path class="cls-2" d="M175.83,178.69l-12.13-62.68s0,0,0,0l-8.56-44.24c-.31-1.62-1.73-2.79-3.39-2.79H82.77c-1.65,0-3.07,1.17-3.39,2.79l-10.57,54.61s0,0,0,0l-10.12,52.31c-.41,2.13,1.22,4.1,3.39,4.1h110.36c2.16,0,3.8-1.98,3.39-4.1Z"/>
          <g class="cls-3">
            <path class="cls-4" d="M25.87,0C15.41,0,6.9,8.51,6.9,18.97s8.51,18.97,18.97,18.97,18.97-8.51,18.97-18.97S36.33,0,25.87,0Zm0,31.04c-6.66,0-12.07-5.41-12.07-12.07s5.41-12.07,12.07-12.07,12.07,5.41,12.07,12.07-5.41,12.07-12.07,12.07Z"/>
            <path class="cls-4" d="M208.66,0c-10.46,0-18.97,8.51-18.97,18.97s8.51,18.97,18.97,18.97,18.97-8.51,18.97-18.97S219.12,0,208.66,0Zm0,31.04c-6.66,0-12.07-5.41-12.07-12.07s5.41-12.07,12.07-12.07,12.07,5.41,12.07,12.07-5.41,12.07-12.07,12.07Z"/>
            <path class="cls-4" d="M224.18,158.77V55.06c5.84-.84,10.35-5.88,10.35-11.95,0-6.66-5.41-12.07-12.07-12.07h-27.59c-6.66,0-12.07,5.41-12.07,12.07,0,6.07,4.5,11.11,10.35,11.95v22.58c-8.95,7.93-36.28,28.79-75.9,29.05-29.11,.21-55.67-10.99-75.85-29.04v-22.58c5.84-.84,10.35-5.88,10.35-11.95,0-6.66-5.41-12.07-12.07-12.07H12.07c-6.66,0-12.07,5.41-12.07,12.07,0,6.07,4.5,11.11,10.35,11.95v103.72c-5.84,.84-10.35,5.88-10.35,11.95,0,6.66,5.41,12.07,12.07,12.07h27.59c6.66,0,12.07-5.41,12.07-12.07,0-6.07-4.5-11.11-10.35-11.95v-55.13c20.2,14.96,47.17,24.13,75.9,23.96,38.19-.25,64.75-15.99,75.85-24.05v55.22c-5.84,.84-10.35,5.88-10.35,11.95,0,6.66,5.41,12.07,12.07,12.07h27.59c6.66,0,12.07-5.41,12.07-12.07,0-6.07-4.5-11.11-10.35-11.95h0Zm-24.14-103.59h17.24v103.47h-17.24V55.18Zm-10.35-12.07c0-2.85,2.32-5.17,5.17-5.17h27.59c2.85,0,5.17,2.32,5.17,5.17s-2.32,5.17-5.17,5.17h-27.59c-2.85,0-5.17-2.32-5.17-5.17ZM17.24,55.18h17.24v103.47H17.24V55.18Zm-10.35-12.07c0-2.85,2.32-5.17,5.17-5.17h27.59c2.85,0,5.17,2.32,5.17,5.17s-2.32,5.17-5.17,5.17H12.07c-2.85,0-5.17-2.32-5.17-5.17Zm37.94,127.61c0,2.85-2.32,5.17-5.17,5.17H12.07c-2.85,0-5.17-2.32-5.17-5.17s2.32-5.17,5.17-5.17h27.59c2.85,0,5.17,2.32,5.17,5.17Zm124.66-61.46c-16.88,7.67-34.78,11.45-53.1,11.45-42.13,0-68.81-20.54-75-25.85v-8.17c21.27,17.19,47.53,27.08,75.9,26.89,36.6-.24,63.31-17.08,75.85-26.97v8.24c-2.86,2.41-10.83,8.59-23.64,14.41h0Zm52.96,66.63h-27.59c-2.85,0-5.17-2.32-5.17-5.17s2.32-5.17,5.17-5.17h27.59c2.85,0,5.17,2.32,5.17,5.17s-2.32,5.17-5.17,5.17Z"/>
          </g>
        </g>
      </g>
    </g>
  </g>
</svg>