<?xml version="1.0" encoding="UTF-8"?>
<svg xmlns="http://www.w3.org/2000/svg" xmlns:xlink="http://www.w3.org/1999/xlink" viewBox="0 0 226.35 200.04">
  <defs>
    <style>
      .cls-1 {
        isolation: isolate;
      }

      .cls-2 {
        fill: url(#linear-gradient);
      }

      .cls-3 {
        mix-blend-mode: darken;
      }

      .cls-4 {
        fill: #ffffff;
      }
    </style>
    <linearGradient id="linear-gradient" x1="255.82" y1="166.7" x2="110.14" y2="166.7" gradientUnits="userSpaceOnUse">
      <stop offset="0" stop-color="#69b42d"/>
      <stop offset="1" stop-color="#009f6f"/>
    </linearGradient>
  </defs>
  <g class="cls-1">
    <g id="Layer_2" data-name="Layer 2">
      <g id="Layer_1-2" data-name="Layer 1">
        <g>
          <path class="cls-2" d="M226.35,143.38v46.63c0,1.85-1.5,3.36-3.36,3.36H66.23v-4.63l79.07-45.65,6.67-3.06h71.03c1.85,0,3.35,1.5,3.35,3.35Z"/>
          <g class="cls-3">
            <path class="cls-4" d="M33.34,156.69c-7.35,0-13.34,5.98-13.34,13.34s5.98,13.34,13.34,13.34,13.34-5.98,13.34-13.34-5.98-13.34-13.34-13.34Zm0,20c-3.68,0-6.67-2.99-6.67-6.67s2.99-6.67,6.67-6.67,6.67,2.99,6.67,6.67-2.99,6.67-6.67,6.67Z"/>
            <path class="cls-4" d="M66.23,193.37V9.95c0-4.98-3.64-9.44-8.6-9.91-.31-.03-.63-.04-.95-.04H10C4.48,0,0,4.48,0,10V190.03c0,5.52,4.48,10,10,10h56.23v-6.66Zm-6.22-3.34c0,1.84-1.5,3.33-3.33,3.33H10c-1.84,0-3.33-1.49-3.33-3.33v-43.34H60.01v43.34Zm0-50.01H6.67v-40.01H60.01v40.01Zm0-46.67H6.67V53.35H60.01v40.01Zm0-46.68H6.67V10c0-1.84,1.5-3.33,3.33-3.33H56.68c1.84,0,3.33,1.49,3.33,3.33V46.67Z"/>
            <path class="cls-4" d="M188.64,133.36h-26.51l25.06-14.48c2.32-1.33,3.98-3.49,4.67-6.08,.68-2.57,.33-5.26-1.01-7.58l-23.33-40.39c-1.33-2.33-3.49-3.99-6.07-4.68-2.58-.69-5.28-.33-7.58,1.02l-30.87,17.82,17.81-30.86c1.35-2.32,1.72-5.02,1.03-7.6-.69-2.58-2.35-4.74-4.67-6.07L96.75,11.11c-2.32-1.32-5.01-1.68-7.57-1-2.59,.69-4.74,2.34-6.07,4.66l-16.88,29.24v13.35l.98-1.7,46.18,26.66-20.01,34.66h0c-13.96-8.04-16.37-9.44-24.39-14.09l-2.76-1.6v7.71c7.55,4.38,10.2,5.92,23.81,13.76-9.46,16.38-18.07,31.31-23.81,41.25v13.34c3.58-6.2,13.52-23.43,25.39-43.98l14.3,24.78c-31.34,18.1-35.66,20.59-35.78,20.66,.05-.03,.98-.56-.01,0h0c-.88,.5-.94,.53-3.9,2.23v7.69c3.58-2.06,5.51-3.18,6.45-3.71h0c.27-.15,.37-.21,.38-.22,1.19-.68,6.36-3.67,25.57-14.76v23.33h-32.4v6.66h122.41c5.51,0,10-4.49,10-10v-46.67c0-5.51-4.49-10-10-10Zm-31.43-66.43c1.59-.92,3.6-.41,4.53,1.22l23.33,40.39c.93,1.62,.4,3.64-1.2,4.56l-31.77,18.35-26.66-46.18,31.77-18.34Zm-86.68-17.05l18.35-31.78h0c.9-1.58,2.95-2.12,4.54-1.2l40.42,23.34c1.58,.9,2.16,2.9,1.2,4.54l-18.33,31.76-46.17-26.66Zm74.76,143.5h-40.01v-27.18l40.01-23.1v50.29Zm-33.61-38.58l-16.22-28.11,.45-.78,20.42-35.37,3.33-1.92,26.66,46.18-34.64,20.01Zm80.28,35.24c0,1.84-1.49,3.33-3.33,3.33h-36.67v-53.34h36.67c1.84,0,3.33,1.49,3.33,3.33v46.67Z"/>
          </g>
        </g>
      </g>
    </g>
  </g>
</svg>