<?xml version="1.0" encoding="UTF-8"?>
<svg xmlns="http://www.w3.org/2000/svg" xmlns:xlink="http://www.w3.org/1999/xlink" viewBox="0 0 209.25 206.14">
  <defs>
    <style>
      .cls-1 {
        isolation: isolate;
      }

      .cls-2 {
        fill: #ffffff;
        fill-rule: evenodd;
      }

      .cls-3 {
        fill: url(#linear-gradient);
      }

      .cls-4 {
        mix-blend-mode: darken;
      }
    </style>
    <linearGradient id="linear-gradient" x1="9.67" y1="26.34" x2="200.15" y2="26.34" gradientUnits="userSpaceOnUse">
      <stop offset="0" stop-color="#32d8a6"/>
      <stop offset="1" stop-color="#32d8a6"/>
    </linearGradient>
  </defs>
  <g class="cls-1">
    <g id="Layer_2" data-name="Layer 2">
      <g id="Layer_1-2" data-name="Layer 1">
        <g>
          <rect class="cls-3" x="9.67" width="190.49" height="52.68" rx="4.56" ry="4.56"/>
          <g class="cls-4">
            <g id="Icon">
              <path class="cls-2" d="M0,37.83V183.4c0,6.03,2.4,11.82,6.66,16.08,4.27,4.26,10.05,6.66,16.09,6.66H186.51c6.03,0,11.82-2.4,16.09-6.66,4.26-4.27,6.66-10.05,6.66-16.08V37.83c0-6.03-2.4-11.82-6.66-16.08-4.27-4.26-10.05-6.66-16.09-6.66H22.74c-6.03,0-11.82,2.4-16.09,6.66C2.4,26.01,0,31.8,0,37.83Zm200.15,40.94v104.62c0,3.62-1.44,7.09-4,9.65-2.56,2.56-6.03,4-9.65,4H22.74c-3.62,0-7.09-1.44-9.65-4-2.56-2.56-4-6.03-4-9.65V78.77H200.15ZM19.46,69.68H9.1v-31.84c0-3.62,1.44-7.09,4-9.65,2.56-2.56,6.03-4,9.65-4h11.89l-15.17,45.49Zm36.39,0l15.17-45.49h-26.8l-15.17,45.49h26.8Zm36.39,0l15.17-45.49h-26.8l-15.17,45.49h26.8Zm36.39,0l15.17-45.49h-26.8l-15.17,45.49h26.8Zm36.39,0l15.17-45.49h-26.8l-15.17,45.49h26.8Zm9.59,0l15.04-45.12c2.44,.58,4.69,1.83,6.49,3.63,2.56,2.56,4,6.03,4,9.65v31.84h-25.53Z"/>
              <path class="cls-2" d="M130.39,149.26c3.8-2.53,6.08-6.79,6.08-11.35s-2.28-8.82-6.08-11.35l-27.29-18.2c-4.19-2.79-9.57-3.05-14.01-.68-4.44,2.37-7.21,7-7.21,12.03v36.39c0,5.03,2.77,9.66,7.21,12.03,4.44,2.37,9.83,2.12,14.01-.68l27.29-18.2Zm-5.04-7.57l-27.29,18.2c-1.4,.93-3.19,1.02-4.67,.23s-2.4-2.33-2.4-4.01v-36.39c0-1.68,.92-3.22,2.4-4.01s3.28-.71,4.67,.23l27.29,18.2c1.26,.84,2.02,2.27,2.02,3.78s-.76,2.94-2.02,3.78Z"/>
            </g>
          </g>
        </g>
      </g>
    </g>
  </g>
</svg>