<?xml version="1.0" encoding="UTF-8"?>
<svg id="Layer_2" data-name="Layer 2" xmlns="http://www.w3.org/2000/svg"
  xmlns:xlink="http://www.w3.org/1999/xlink" viewBox="0 0 240.92 237.97">
  <defs>
    <style>
      .cls-1 {
      fill: url(#linear-gradient-2);
      }

      .cls-2 {
      fill: url(#linear-gradient-3);
      }

      .cls-3 {
      fill: url(#linear-gradient);
      }

      .cls-4 {
      fill: #ffffff;
      }
    </style>
    <linearGradient id="linear-gradient" x1="86.5" y1="139.47" x2="154.41" y2="139.47"
      gradientUnits="userSpaceOnUse">
      <stop offset="0" stop-color="#32d8a6" />
      <stop offset="1" stop-color="#32d8a6" />
    </linearGradient>
    <linearGradient id="linear-gradient-2" x1="57.66" y1="153.59" x2="183.26" y2="153.59"
      xlink:href="#linear-gradient" />
    <linearGradient id="linear-gradient-3" x1="0" y1="182.29" x2="240.92" y2="182.29"
      xlink:href="#linear-gradient" />
  </defs>
  <g id="Layer_1-2" data-name="Layer 1">
    <g>
      <g>
        <path class="cls-4"
          d="M120.46,0c-15.57,0-28.23,12.66-28.23,28.23s12.66,28.23,28.23,28.23,28.7-12.66,28.7-28.23S136.03,0,120.46,0Z" />
        <path class="cls-4"
          d="M191.51,0c-15.57,0-28.23,12.66-28.23,28.23s12.66,28.23,28.23,28.23,28.23-12.66,28.23-28.23S207.08,0,191.51,0Z" />
        <path class="cls-4"
          d="M49.88,0c-15.57,0-28.23,12.66-28.23,28.23s12.66,28.23,28.23,28.23,28.23-12.66,28.23-28.23S65.45,0,49.88,0Z" />
        <path class="cls-4"
          d="M215.59,63c-6.85,4.76-15.13,7.58-24.08,7.58s-17.17-2.8-24-7.52c-3.1,1.78-6.07,3.78-8.76,6.19,13.73,10.26,23.26,26.29,25.27,44.15h56.9v-7.06c0-18.46-10.3-34.86-25.33-43.35Z" />
        <path class="cls-4"
          d="M120.46,70.58c-24.85,0-45.47,18.91-48.9,42.82h98.28c-3.43-23.91-24.53-42.82-49.37-42.82Z" />
        <path class="cls-4"
          d="M73.87,63.06c-6.83,4.72-15.08,7.52-24,7.52s-17.23-2.83-24.08-7.58C10.77,71.48,0,87.89,0,106.34v7.06H57.37c2.02-17.87,11.55-33.89,25.27-44.15-2.69-2.41-5.67-4.41-8.76-6.19Z" />
      </g>
      <g>
        <path class="cls-3"
          d="M139.32,126.61c-3.59,7.04-10.86,11.61-18.86,11.61s-15.25-4.53-18.86-11.61h-15.1c4.18,14.83,17.81,25.73,33.96,25.73s29.75-10.92,33.95-25.73h-15.09Z" />
        <path class="cls-1"
          d="M168.91,126.61c-4.49,22.66-24.5,39.84-48.45,39.84s-43.54-16.76-48.31-39.05h-.04v-.2c-.04-.2-.08-.4-.12-.6h-14.33c4.67,30.82,31.33,53.96,62.8,53.96s58.14-23.21,62.8-53.96h-14.35Z" />
        <path class="cls-2"
          d="M226.95,126.61v.79l-27.65,7.64c-2.14,.7-3.82,2.39-4.52,4.53-1.77,5.46-3.65,10.04-5.74,13.98-1.06,2.01-1.09,4.41-.08,6.45l12.7,25.52-12.72,12.72-25.52-12.7c-2.04-1.01-4.44-.98-6.45,.08-3.94,2.09-8.52,3.96-13.98,5.74-2.16,.7-3.85,2.39-4.54,4.55l-9.01,27.95h-17.95l-9.01-27.95c-.7-2.16-2.38-3.85-4.54-4.55-5.46-1.77-10.04-3.65-13.98-5.74-2.01-1.06-4.41-1.09-6.45-.08l-25.52,12.7-12.72-12.72,12.7-25.52c1.01-2.04,.98-4.44-.08-6.45-2.09-3.94-3.96-8.52-5.74-13.98-.7-2.15-2.38-3.83-4.52-4.53l-25.79-8.43H0v4.55c0,3.05,1.96,5.76,4.86,6.71l29.02,9.49c1.22,3.45,2.5,6.59,3.88,9.5l-13.4,26.92c-1.35,2.72-.82,5.99,1.33,8.14l19.9,19.9c2.15,2.14,5.42,2.68,8.14,1.33l26.92-13.4c2.9,1.37,6.04,2.65,9.48,3.87l9.5,29.47c.94,2.92,3.65,4.89,6.72,4.89h28.23c3.06,0,5.78-1.98,6.72-4.89l9.5-29.47c3.44-1.22,6.58-2.5,9.48-3.87l26.92,13.4c2.72,1.35,5.99,.82,8.14-1.33l19.9-19.9c2.14-2.14,2.68-5.42,1.33-8.14l-13.4-26.92c1.37-2.91,2.66-6.05,3.88-9.5l29.02-9.49c2.9-.95,4.86-3.66,4.86-6.71v-4.55h-13.97Z" />
      </g>
    </g>
  </g>
</svg>