<svg width="1300" height="445" viewBox="0 0 1300 445" fill="none" xmlns="http://www.w3.org/2000/svg">
<g clip-path="url(#clip0_853_9)">
<path d="M85.525 56C108.188 56.0514 129.909 65.075 145.937 81.0974C161.965 97.1197 170.996 118.837 171.055 141.5V347.54H115.33V141.525C115.381 137.579 114.648 133.662 113.173 130.001C111.699 126.341 109.512 123.009 106.739 120.201C103.967 117.392 100.664 115.162 97.023 113.64C93.382 112.118 89.474 111.334 85.528 111.334C81.581 111.334 77.674 112.118 74.033 113.64C70.392 115.162 67.089 117.392 64.316 120.201C61.544 123.009 59.357 126.341 57.882 130.001C56.407 133.662 55.674 137.579 55.725 141.525V347.565H0V141.525C0.053 118.859 9.08097 97.1356 25.108 81.108C41.136 65.0804 62.859 56.0528 85.525 56Z" fill="#232323"/>
<path d="M291.56 56C302.85 55.9927 314.031 58.211 324.463 62.5281C334.895 66.8451 344.373 73.1762 352.357 81.1592C360.34 89.1422 366.672 98.6206 370.99 109.053C375.307 119.485 377.526 130.665 377.52 141.955V347.565H321.375V141.955C321.375 134.05 318.235 126.469 312.645 120.88C307.055 115.29 299.475 112.15 291.57 112.15C283.665 112.15 276.084 115.29 270.494 120.88C264.905 126.469 261.765 134.05 261.765 141.955V172.195C261.786 172.532 261.93 172.85 262.17 173.089C262.409 173.327 262.727 173.47 263.065 173.49H307.565V229.64H263.065C255.52 229.644 248.048 228.161 241.076 225.275C234.105 222.39 227.77 218.159 222.434 212.824C217.099 207.489 212.867 201.155 209.981 194.183C207.095 187.212 205.611 179.74 205.615 172.195V141.955C205.608 130.666 207.827 119.487 212.143 109.056C216.46 98.6251 222.79 89.1473 230.772 81.1645C238.754 73.1816 248.231 66.8503 258.661 62.5324C269.092 58.2145 280.271 55.9947 291.56 56ZM205.605 214.525C212.137 223.312 220.592 230.488 230.325 235.504C240.057 240.52 250.808 243.244 261.755 243.465V347.565H205.605V214.525Z" fill="#232323"/>
<path d="M612.948 56C635.608 56.058 657.318 65.0847 673.348 81.1065C689.368 97.1282 698.388 118.842 698.448 141.5V347.54H642.748V141.525C642.748 133.62 639.608 126.039 634.018 120.45C628.428 114.86 620.848 111.72 612.948 111.72C605.038 111.72 597.458 114.86 591.868 120.45C586.278 126.039 583.138 133.62 583.138 141.525H527.418C527.418 133.62 524.278 126.039 518.688 120.45C513.098 114.86 505.52 111.72 497.615 111.72C489.71 111.72 482.129 114.86 476.54 120.45C470.95 126.039 467.81 133.62 467.81 141.525V347.565H412.09V141.525C412.143 118.859 421.171 97.1356 437.198 81.108C453.226 65.0804 474.949 56.0528 497.615 56C519.008 56.1313 539.608 64.1252 555.498 78.46C571.168 64.0656 591.668 56.0543 612.948 56ZM527.418 347.565V155.35H583.138V347.565H527.418Z" fill="#232323"/>
<path d="M733.058 347.565V106H789.218V347.565H733.058Z" fill="#232323"/>
<path d="M739.898 22.3838L732.217 14.7088C731.697 14.227 731.018 13.9638 730.318 13.975C729.608 13.9862 728.938 14.2707 728.438 14.7686C727.938 15.2665 727.658 15.9387 727.648 16.6432C727.628 17.3476 727.898 18.0291 728.378 18.5438L736.058 26.2238C736.568 26.7331 737.257 27.0191 737.977 27.0191C738.697 27.0191 739.388 26.7331 739.898 26.2238C740.408 25.7146 740.688 25.024 740.688 24.3038C740.688 23.5837 740.408 22.893 739.898 22.3838Z" fill="#F9B233"/>
<path d="M728.438 44.5904H717.388C716.688 44.6205 716.028 44.9199 715.548 45.4262C715.058 45.9326 714.788 46.6068 714.788 47.308C714.788 48.0092 715.058 48.6833 715.548 49.1896C716.028 49.6959 716.688 49.9953 717.388 50.0254H728.438C728.798 50.0411 729.168 49.9825 729.508 49.8531C729.858 49.7236 730.168 49.526 730.438 49.2721C730.698 49.0182 730.908 48.7132 731.058 48.3757C731.198 48.0381 731.268 47.675 731.268 47.308C731.268 46.9409 731.198 46.5777 731.058 46.2402C730.908 45.9026 730.698 45.5977 730.438 45.3439C730.168 45.09 729.858 44.8923 729.508 44.7628C729.168 44.6333 728.798 44.5747 728.438 44.5904Z" fill="#F9B233"/>
<path d="M804.558 44.5904H793.518C793.148 44.5747 792.778 44.6333 792.438 44.7628C792.098 44.8923 791.778 45.09 791.518 45.3439C791.248 45.5977 791.038 45.9026 790.898 46.2402C790.758 46.5777 790.678 46.9409 790.678 47.308C790.678 47.675 790.758 48.0381 790.898 48.3757C791.038 48.7132 791.248 49.0182 791.518 49.2721C791.778 49.526 792.098 49.7236 792.438 49.8531C792.778 49.9825 793.148 50.0411 793.518 50.0254H804.558C805.278 50.0163 805.968 49.7267 806.468 49.2184C806.978 48.7102 807.268 48.0236 807.278 47.3054C807.278 46.9487 807.208 46.5953 807.068 46.2656C806.938 45.9359 806.738 45.6365 806.478 45.3842C806.228 45.132 805.928 44.932 805.598 44.7958C805.268 44.6595 804.918 44.5898 804.558 44.5904Z" fill="#F9B233"/>
<path d="M793.588 14.7038C793.328 14.4504 793.038 14.2494 792.708 14.1122C792.378 13.9749 792.018 13.9043 791.668 13.9043C791.308 13.9043 790.958 13.9749 790.628 14.1122C790.298 14.2494 789.998 14.4504 789.748 14.7038L782.068 22.3788C781.808 22.631 781.608 22.9303 781.478 23.2597C781.338 23.5892 781.268 23.9423 781.268 24.2988C781.268 24.6554 781.338 25.0085 781.478 25.3379C781.608 25.6673 781.808 25.9667 782.068 26.2189C782.318 26.471 782.618 26.6709 782.948 26.8074C783.278 26.9438 783.628 27.0141 783.988 27.0141C784.338 27.0141 784.698 26.9438 785.028 26.8074C785.348 26.6709 785.648 26.471 785.908 26.2189L793.588 18.5388C793.838 18.2871 794.038 17.9882 794.168 17.6592C794.308 17.3302 794.378 16.9775 794.378 16.6213C794.378 16.2651 794.308 15.9124 794.168 15.5834C794.038 15.2544 793.838 14.9555 793.588 14.7038Z" fill="#F9B233"/>
<path d="M760.978 1C760.618 0.999346 760.268 1.0691 759.938 1.20531C759.608 1.34152 759.308 1.54152 759.058 1.79376C758.808 2.04601 758.608 2.34557 758.468 2.67526C758.338 3.00496 758.268 3.35827 758.268 3.715V14.76C758.268 15.4781 758.558 16.1647 759.068 16.6729C759.578 17.1812 760.258 17.4709 760.978 17.48C761.338 17.4806 761.688 17.4107 762.018 17.2741C762.348 17.1376 762.648 16.9372 762.898 16.6845C763.158 16.4317 763.358 16.1316 763.488 15.8013C763.628 15.471 763.698 15.1171 763.698 14.76V3.715C763.688 2.99735 763.398 2.31131 762.888 1.80383C762.378 1.29636 761.698 1.00781 760.978 1Z" fill="#F9B233"/>
<path d="M776.157 28.1706C773.227 25.8503 769.797 24.2335 766.147 23.4447C762.487 22.6559 758.707 22.7161 755.077 23.6206C750.787 24.6312 746.857 26.8029 743.717 29.8977C740.587 32.9924 738.357 36.8908 737.297 41.1656C736.227 45.3332 736.277 49.7062 737.427 53.8505C738.577 57.9948 740.787 61.7662 743.847 64.7905C746.187 67.3071 747.457 70.6288 747.397 74.0606V74.6505C747.387 75.0094 747.457 75.3658 747.587 75.6986C747.727 76.0314 747.927 76.3337 748.177 76.5875C748.427 76.8413 748.737 77.0414 749.067 77.1759C749.397 77.3105 749.757 77.3767 750.117 77.3706H771.847C772.207 77.3767 772.567 77.3105 772.897 77.1759C773.227 77.0413 773.527 76.8411 773.787 76.5872C774.037 76.3333 774.237 76.031 774.367 75.6983C774.507 75.3656 774.567 75.0092 774.567 74.6505V74.0606C774.527 70.5464 775.857 67.1563 778.287 64.6106C782.837 60.0247 785.377 53.8248 785.377 47.3655C785.417 43.6732 784.607 40.0208 783.007 36.692C781.407 33.3631 779.067 30.4472 776.157 28.1706ZM760.977 39.1706C759.207 39.1277 757.467 39.6799 756.047 40.7393C754.617 41.7986 753.597 43.304 753.127 45.0155C752.947 45.7182 752.497 46.3228 751.877 46.6974C751.257 47.0721 750.517 47.1864 749.817 47.0156C749.467 46.9345 749.137 46.7832 748.847 46.5709C748.557 46.3585 748.317 46.0897 748.127 45.7805C747.947 45.4714 747.837 45.1285 747.787 44.7726C747.747 44.4168 747.767 44.0554 747.867 43.7106C748.627 40.82 750.327 38.2654 752.707 36.4533C755.077 34.6412 757.987 33.6758 760.977 33.7106C761.697 33.7197 762.387 34.0093 762.887 34.5176C763.397 35.0259 763.687 35.7125 763.697 36.4306C763.697 36.7881 763.627 37.1426 763.487 37.4734C763.357 37.8043 763.157 38.105 762.907 38.3583C762.647 38.6116 762.347 38.8125 762.017 38.9493C761.687 39.0862 761.337 39.1562 760.977 39.1556V39.1706Z" fill="#F9B233"/>
<path d="M750.118 82.8066V85.5217C750.118 87.682 750.978 89.7526 752.508 91.2802C754.038 92.8077 756.108 93.6676 758.268 93.6716H763.698C765.858 93.6677 767.928 92.8079 769.458 91.2805C770.988 89.7531 771.848 87.6824 771.848 85.5217V82.8066H750.118Z" fill="#F9B233"/>
<path d="M6.47 405.53V428.71H0V377.795H34.135V383.555H6.47V399.77H30.79V405.53H6.47Z" fill="#232323"/>
<path d="M55.6108 391.381C58.0188 391.24 60.4248 391.691 62.6188 392.694C64.8118 393.698 66.7268 395.222 68.1958 397.136C70.9428 401.083 72.2948 405.834 72.0358 410.636C72.2198 413.263 71.8748 415.9 71.0198 418.391C70.1648 420.881 68.8187 423.175 67.0607 425.136C63.6427 428.142 59.1838 429.691 54.6378 429.452C50.0918 429.213 45.8198 427.204 42.7358 423.856C39.9978 420.008 38.6448 415.346 38.8958 410.631C38.7168 407.943 39.0708 405.245 39.9378 402.695C40.8048 400.144 42.1668 397.789 43.9458 395.766C45.4848 394.273 47.3148 393.114 49.3218 392.359C51.3288 391.605 53.4698 391.272 55.6108 391.381ZM55.6108 396.711C54.1008 396.651 52.5998 396.959 51.2358 397.61C49.8728 398.261 48.6878 399.234 47.7858 400.446C45.7388 403.441 44.7388 407.029 44.9408 410.651C44.6848 414.366 45.8258 418.043 48.1408 420.961C49.0648 421.997 50.2078 422.815 51.4868 423.357C52.7658 423.898 54.1488 424.149 55.5358 424.091C57.0028 424.159 58.4638 423.872 59.7948 423.253C61.1268 422.634 62.2878 421.701 63.1808 420.536C65.1638 417.635 66.1278 414.158 65.9208 410.651C66.1778 406.835 65.0688 403.053 62.7908 399.981C61.9288 398.917 60.8318 398.068 59.5858 397.501C58.3398 396.933 56.9788 396.663 55.6108 396.711Z" fill="#232323"/>
<path d="M80.0713 392.162H85.4763V398.847C86.1353 396.677 87.4703 394.775 89.2883 393.418C91.1053 392.062 93.3083 391.322 95.5763 391.307C96.2673 391.321 96.9563 391.393 97.6363 391.522V397.492C94.9273 397.286 92.2153 397.853 89.8163 399.127C88.3673 400.455 87.2573 402.11 86.5773 403.953C85.8973 405.797 85.6673 407.776 85.9062 409.727V428.727H80.0713V392.162Z" fill="#232323"/>
<path d="M142.441 402.185H136.036C135.853 398.519 133.413 396.685 128.716 396.685C126.714 396.58 124.724 397.061 122.991 398.07C122.344 398.453 121.808 399 121.44 399.656C121.071 400.311 120.882 401.053 120.891 401.805C120.891 404.175 123.143 405.882 127.646 406.925L133.266 408.205C136.169 408.704 138.891 409.953 141.161 411.83C141.986 412.672 142.626 413.676 143.042 414.779C143.458 415.882 143.64 417.058 143.576 418.235C143.629 419.831 143.287 421.416 142.581 422.848C141.874 424.28 140.825 425.516 139.526 426.445C136.299 428.614 132.454 429.676 128.571 429.47C124.444 429.763 120.357 428.494 117.121 425.915C116.032 424.936 115.158 423.741 114.556 422.406C113.953 421.071 113.635 419.625 113.621 418.16H120.236C120.46 419.476 120.997 420.72 121.801 421.785C122.766 422.657 123.907 423.311 125.147 423.705C126.386 424.098 127.695 424.221 128.986 424.065C131.156 424.174 133.312 423.668 135.206 422.605C135.905 422.227 136.488 421.667 136.894 420.985C137.301 420.303 137.516 419.524 137.516 418.73C137.516 416.317 135.645 414.659 131.901 413.755L126.401 412.47C123.289 411.916 120.329 410.71 117.716 408.93C116.755 408.098 115.998 407.055 115.505 405.882C115.011 404.71 114.795 403.44 114.871 402.17C114.82 400.645 115.139 399.129 115.802 397.754C116.464 396.379 117.451 395.185 118.676 394.275C121.661 392.2 125.251 391.176 128.881 391.365C132.64 391.13 136.349 392.323 139.266 394.705C140.308 395.646 141.132 396.803 141.68 398.095C142.228 399.386 142.488 400.783 142.441 402.185Z" fill="#232323"/>
<path d="M165.716 391.381C168.125 391.241 170.531 391.692 172.726 392.695C174.92 393.698 176.836 395.222 178.306 397.136C181.054 401.082 182.405 405.834 182.146 410.636C182.327 413.264 181.978 415.902 181.119 418.393C180.26 420.884 178.909 423.177 177.146 425.136C173.729 428.142 169.271 429.691 164.725 429.452C160.18 429.212 155.909 427.204 152.826 423.856C150.089 420.008 148.735 415.346 148.986 410.631C148.807 407.942 149.16 405.245 150.027 402.694C150.893 400.143 152.256 397.788 154.036 395.766C155.577 394.271 157.409 393.11 159.419 392.355C161.429 391.601 163.572 391.269 165.716 391.381ZM165.716 396.711C164.207 396.651 162.705 396.96 161.342 397.61C159.978 398.261 158.794 399.234 157.891 400.446C155.846 403.441 154.848 407.029 155.051 410.651C154.793 414.366 155.934 418.044 158.251 420.961C159.175 421.998 160.318 422.816 161.597 423.357C162.876 423.899 164.259 424.149 165.646 424.091C167.113 424.159 168.574 423.871 169.905 423.252C171.237 422.633 172.398 421.701 173.291 420.536C175.274 417.635 176.238 414.158 176.031 410.651C176.289 406.835 175.179 403.052 172.901 399.981C172.038 398.917 170.94 398.069 169.693 397.501C168.446 396.934 167.085 396.663 165.716 396.711Z" fill="#232323"/>
<path d="M203.309 392.163V396.853H197.264V428.713H191.504V396.853H186.599V392.163H191.504V385.903C191.439 384.785 191.604 383.665 191.99 382.613C192.375 381.561 192.972 380.6 193.744 379.788C194.593 379.019 195.588 378.428 196.669 378.049C197.75 377.671 198.896 377.512 200.039 377.583C201.138 377.59 202.234 377.709 203.309 377.938V382.773H202.669C202.169 382.728 201.699 382.703 201.319 382.703C198.616 382.703 197.264 383.936 197.264 386.403V392.163H203.309Z" fill="#232323"/>
<path d="M223.936 392.159V396.849H216.466V421.174C216.458 421.577 216.533 421.978 216.686 422.351C216.839 422.724 217.067 423.062 217.356 423.344C217.661 423.641 218.023 423.872 218.42 424.025C218.817 424.177 219.241 424.246 219.666 424.229C221.06 424.159 222.442 423.944 223.791 423.589L224.431 428.709C222.228 429.151 219.992 429.414 217.746 429.494C213.053 429.494 210.706 427.574 210.706 423.734V396.849H205.706V392.159H210.706V384.689L216.466 382.059V392.159H223.936Z" fill="#232323"/>
<path d="M264.539 428.712H257.924L250.454 399.982L243.414 428.712H236.874L226.279 392.162H232.679L240.214 420.607L247.184 392.162H254.294L261.479 420.607L268.734 392.162H275.274L264.539 428.712Z" fill="#232323"/>
<path d="M313.606 423.805V428.5C312.403 428.978 311.133 429.265 309.841 429.35C309.085 429.467 308.313 429.421 307.576 429.216C306.84 429.01 306.156 428.649 305.569 428.158C304.983 427.667 304.509 427.056 304.178 426.366C303.847 425.677 303.668 424.924 303.651 424.16C302.174 426 300.268 427.449 298.099 428.379C295.931 429.31 293.567 429.693 291.216 429.495C289.545 429.597 287.871 429.359 286.294 428.797C284.718 428.235 283.271 427.36 282.041 426.225C281.094 425.262 280.354 424.115 279.865 422.855C279.377 421.596 279.151 420.25 279.201 418.9C279.121 417.389 279.409 415.881 280.04 414.506C280.672 413.13 281.628 411.929 282.826 411.005C285.487 409.475 288.402 408.439 291.431 407.945L303.376 405.245L303.451 402.185C303.451 398.518 300.701 396.685 295.201 396.685C289.938 396.685 287.116 398.818 286.736 403.085H280.836C280.785 400.418 281.636 397.812 283.251 395.69C284.853 394.122 286.778 392.922 288.891 392.173C291.004 391.425 293.254 391.145 295.486 391.355C304.633 391.355 309.206 394.673 309.206 401.31V421.72C309.206 423.52 309.989 424.42 311.556 424.42C312.07 424.335 312.574 424.193 313.056 423.995C313.243 423.943 313.427 423.88 313.606 423.805ZM303.441 410.01L294.051 412.425C291.612 412.913 289.27 413.802 287.121 415.055C286.515 415.474 286.024 416.039 285.695 416.698C285.365 417.357 285.207 418.089 285.236 418.825C285.236 422.572 287.653 424.445 292.486 424.445C295.706 424.519 298.826 423.318 301.166 421.105C301.863 420.534 302.428 419.819 302.82 419.008C303.213 418.197 303.425 417.311 303.441 416.41V410.01Z" fill="#232323"/>
<path d="M319.935 392.162H325.34V398.847C325.999 396.677 327.335 394.775 329.152 393.418C330.969 392.062 333.172 391.322 335.44 391.307C336.131 391.321 336.82 391.393 337.5 391.522V397.492C334.791 397.285 332.079 397.852 329.68 399.127C328.231 400.454 327.119 402.109 326.438 403.953C325.758 405.796 325.527 407.776 325.765 409.727V428.727H319.935V392.162Z" fill="#232323"/>
<path d="M374.126 412.14H347.171C347.081 414.773 347.777 417.374 349.171 419.61C350.124 421.06 351.437 422.238 352.983 423.027C354.529 423.816 356.253 424.189 357.986 424.11C360.114 424.233 362.221 423.633 363.964 422.406C365.707 421.18 366.983 419.399 367.586 417.355H373.416C372.839 420.892 370.964 424.087 368.156 426.315C365.157 428.527 361.495 429.655 357.771 429.515C355.349 429.656 352.928 429.212 350.712 428.222C348.497 427.232 346.552 425.724 345.041 423.825C342.281 420.012 340.902 415.372 341.131 410.67C340.969 408 341.338 405.324 342.217 402.797C343.096 400.271 344.467 397.943 346.251 395.95C347.766 394.434 349.578 393.247 351.573 392.464C353.569 391.681 355.704 391.319 357.846 391.4C361.068 391.337 364.24 392.205 366.981 393.9C369.561 395.499 371.547 397.897 372.636 400.73C373.806 404.355 374.314 408.16 374.136 411.965L374.126 412.14ZM367.866 407.375C367.927 405.968 367.711 404.562 367.229 403.238C366.747 401.914 366.008 400.698 365.056 399.66C364.13 398.687 363.008 397.922 361.764 397.413C360.521 396.905 359.184 396.665 357.841 396.71C356.493 396.658 355.148 396.887 353.893 397.383C352.638 397.879 351.5 398.63 350.551 399.59C348.589 401.717 347.464 404.483 347.386 407.375H367.866Z" fill="#232323"/>
<path d="M424.899 377.795V428.71H419.064V423.665C417.992 425.558 416.412 427.114 414.503 428.156C412.593 429.199 410.431 429.687 408.259 429.565C405.875 429.687 403.499 429.218 401.34 428.201C399.182 427.184 397.307 425.65 395.884 423.735C393.206 419.758 391.884 415.024 392.114 410.235C391.807 404.989 393.568 399.833 397.019 395.87C398.409 394.391 400.1 393.227 401.977 392.455C403.855 391.684 405.875 391.322 407.904 391.395C410.085 391.273 412.26 391.721 414.216 392.693C416.173 393.665 417.843 395.128 419.064 396.94V377.81L424.899 377.795ZM408.899 396.795C407.391 396.757 405.896 397.083 404.541 397.745C403.186 398.408 402.01 399.387 401.114 400.6C399.027 403.528 397.988 407.074 398.164 410.665C397.95 414.368 399.173 418.011 401.579 420.835C402.493 421.892 403.631 422.734 404.91 423.299C406.188 423.864 407.576 424.14 408.974 424.105C410.404 424.148 411.823 423.84 413.106 423.207C414.389 422.574 415.497 421.636 416.334 420.475C418.187 417.392 419.134 413.848 419.065 410.251C418.996 406.655 417.914 403.15 415.944 400.14C415.109 399.073 414.037 398.214 412.814 397.631C411.591 397.048 410.249 396.757 408.894 396.78L408.899 396.795Z" fill="#232323"/>
<path d="M464.866 412.14H437.911C437.821 414.774 438.518 417.374 439.911 419.61C440.867 421.059 442.181 422.236 443.727 423.024C445.273 423.813 446.997 424.187 448.731 424.11C450.859 424.233 452.966 423.633 454.709 422.406C456.452 421.18 457.729 419.399 458.331 417.355H464.161C463.585 420.893 461.709 424.087 458.901 426.315C455.901 428.526 452.24 429.655 448.516 429.515C446.094 429.656 443.673 429.213 441.457 428.223C439.242 427.233 437.297 425.724 435.786 423.825C433.024 420.013 431.644 415.372 431.876 410.67C431.714 408 432.084 405.324 432.962 402.798C433.841 400.271 435.212 397.943 436.996 395.95C438.511 394.434 440.323 393.247 442.318 392.464C444.314 391.681 446.449 391.318 448.591 391.4C451.813 391.338 454.985 392.206 457.726 393.9C460.306 395.499 462.292 397.897 463.381 400.73C464.551 404.355 465.059 408.161 464.881 411.965L464.866 412.14ZM458.606 407.375C458.668 405.968 458.451 404.562 457.969 403.238C457.487 401.914 456.748 400.699 455.796 399.66C454.87 398.687 453.748 397.922 452.504 397.413C451.261 396.905 449.924 396.665 448.581 396.71C447.233 396.658 445.888 396.887 444.633 397.383C443.378 397.879 442.24 398.631 441.291 399.59C439.329 401.717 438.204 404.483 438.126 407.375H458.606Z" fill="#232323"/>
<path d="M487.835 428.712H481.5L468.63 392.162H475.245L484.915 421.747L495.3 392.162H501.84L487.835 428.712Z" fill="#232323"/>
<path d="M538.607 412.141H511.658C511.568 414.774 512.258 417.374 513.658 419.61C514.608 421.061 515.918 422.239 517.468 423.028C519.008 423.817 520.738 424.19 522.468 424.111C524.598 424.234 526.708 423.633 528.448 422.407C530.188 421.18 531.468 419.4 532.068 417.356H537.898C537.318 420.892 535.448 424.086 532.638 426.315C529.638 428.527 525.978 429.655 522.258 429.516C519.828 429.657 517.408 429.214 515.198 428.223C512.978 427.233 511.038 425.725 509.528 423.826C506.763 420.012 505.384 415.372 505.614 410.67C505.445 407.998 505.809 405.319 506.684 402.789C507.558 400.258 508.928 397.927 510.718 395.931C512.228 394.414 514.038 393.227 516.038 392.444C518.028 391.661 520.157 391.299 522.307 391.38C525.527 391.317 528.698 392.185 531.448 393.88C534.028 395.478 536.007 397.877 537.097 400.71C538.267 404.335 538.777 408.141 538.597 411.946L538.607 412.141ZM532.347 407.376C532.467 404.533 531.458 401.759 529.538 399.661C528.608 398.687 527.487 397.921 526.247 397.413C524.997 396.905 523.657 396.665 522.317 396.711C520.967 396.659 519.627 396.889 518.367 397.385C517.117 397.881 515.978 398.632 515.028 399.59C513.068 401.719 511.947 404.484 511.867 407.376H532.347Z" fill="#232323"/>
<path d="M552.258 377.795V428.71H546.428V377.795H552.258Z" fill="#232323"/>
<path d="M576.368 391.381C578.778 391.241 581.178 391.692 583.378 392.695C585.568 393.698 587.488 395.222 588.958 397.136C591.698 401.082 593.058 405.834 592.798 410.636C592.978 413.262 592.628 415.899 591.778 418.39C590.928 420.881 589.578 423.174 587.818 425.136C584.398 428.142 579.938 429.691 575.398 429.452C570.848 429.213 566.578 427.204 563.498 423.856C560.758 420.008 559.408 415.346 559.658 410.631C559.478 407.942 559.828 405.245 560.698 402.694C561.558 400.143 562.928 397.788 564.708 395.766C566.248 394.273 568.068 393.114 570.078 392.36C572.088 391.605 574.228 391.272 576.368 391.381ZM576.368 396.711C574.858 396.65 573.358 396.959 571.988 397.61C570.628 398.261 569.448 399.234 568.548 400.446C566.498 403.441 565.498 407.028 565.698 410.651C565.448 414.366 566.588 418.043 568.898 420.961C569.828 421.997 570.968 422.815 572.248 423.356C573.528 423.898 574.908 424.149 576.298 424.091C577.758 424.158 579.228 423.87 580.558 423.251C581.888 422.632 583.048 421.701 583.948 420.536C585.928 417.634 586.888 414.157 586.678 410.651C586.938 406.835 585.828 403.052 583.548 399.981C582.688 398.917 581.588 398.068 580.338 397.5C579.098 396.933 577.738 396.662 576.368 396.711Z" fill="#232323"/>
<path d="M599.768 443.929V392.159H605.168V397.774C606.358 395.756 608.068 394.097 610.118 392.971C612.168 391.846 614.488 391.295 616.828 391.379C619.168 391.275 621.488 391.769 623.578 392.814C625.668 393.859 627.458 395.42 628.778 397.349C631.408 401.4 632.708 406.177 632.478 411.004C632.788 416.153 631.048 421.215 627.638 425.084C626.168 426.524 624.428 427.656 622.518 428.412C620.608 429.168 618.558 429.534 616.508 429.487C614.448 429.441 612.428 428.983 610.558 428.141C608.678 427.298 606.988 426.089 605.588 424.584V443.929H599.768ZM615.828 396.779C614.378 396.746 612.938 397.073 611.648 397.731C610.348 398.388 609.238 399.357 608.408 400.549C606.398 403.52 605.408 407.066 605.588 410.649C605.378 414.338 606.508 417.98 608.788 420.889C609.658 421.907 610.738 422.717 611.958 423.259C613.168 423.801 614.498 424.061 615.828 424.019C617.318 424.069 618.788 423.762 620.138 423.124C621.478 422.487 622.648 421.537 623.548 420.354C625.588 417.543 626.608 414.118 626.428 410.649C626.648 406.861 625.488 403.123 623.158 400.124C622.268 399.054 621.148 398.197 619.878 397.618C618.608 397.039 617.228 396.753 615.828 396.779Z" fill="#232323"/>
<path d="M639.718 392.16H645.128V397.43C646.328 395.552 647.998 394.011 649.958 392.955C651.928 391.898 654.128 391.359 656.358 391.39C658.338 391.265 660.318 391.707 662.048 392.663C663.788 393.619 665.218 395.051 666.178 396.79C667.558 395.049 669.288 393.61 671.258 392.56C673.168 391.724 675.248 391.324 677.338 391.39C684.448 391.39 688.008 394.723 688.008 401.39V428.695H682.178V403.68C682.178 398.847 679.898 396.428 675.348 396.425C674.198 396.415 673.058 396.658 672.008 397.138C670.968 397.617 670.038 398.321 669.298 399.2C667.648 401.005 666.758 403.372 666.798 405.815V428.71H660.968V403.68C660.968 398.847 658.718 396.428 654.218 396.425C653.048 396.41 651.898 396.648 650.838 397.121C649.778 397.594 648.828 398.291 648.068 399.165C646.398 400.972 645.498 403.358 645.568 405.815V428.71H639.718V392.16Z" fill="#232323"/>
<path d="M728.757 412.14H701.807C701.717 414.773 702.417 417.373 703.807 419.61C704.757 421.058 706.077 422.234 707.617 423.023C709.167 423.812 710.887 424.186 712.617 424.11C714.747 424.234 716.857 423.633 718.597 422.407C720.347 421.18 721.617 419.4 722.227 417.355H728.057C727.477 420.892 725.597 424.086 722.797 426.315C719.797 428.524 716.137 429.652 712.407 429.515C709.987 429.656 707.567 429.213 705.347 428.223C703.137 427.233 701.187 425.724 699.677 423.825C696.917 420.014 695.537 415.373 695.767 410.67C695.607 408 695.967 405.324 696.847 402.797C697.727 400.271 699.097 397.943 700.887 395.95C702.397 394.434 704.217 393.247 706.207 392.464C708.207 391.681 710.337 391.319 712.487 391.4C715.707 391.338 718.877 392.206 721.617 393.9C724.197 395.497 726.187 397.897 727.267 400.73C728.437 404.354 728.947 408.16 728.767 411.965L728.757 412.14ZM722.497 407.375C722.557 405.968 722.347 404.562 721.867 403.238C721.387 401.915 720.647 400.699 719.697 399.66C718.767 398.687 717.647 397.922 716.407 397.413C715.157 396.905 713.817 396.665 712.477 396.71C711.127 396.658 709.787 396.887 708.527 397.383C707.277 397.879 706.137 398.631 705.187 399.59C703.227 401.716 702.097 404.482 702.017 407.375H722.497Z" fill="#232323"/>
<path d="M736.718 392.16H742.118V398.345C743.318 396.204 745.078 394.427 747.208 393.201C749.338 391.975 751.758 391.346 754.208 391.38C757.258 391.213 760.268 392.161 762.668 394.045C763.698 394.92 764.518 396.018 765.058 397.256C765.608 398.494 765.858 399.839 765.808 401.19V428.69H760.038V403.52C760.088 402.562 759.938 401.605 759.598 400.709C759.248 399.814 758.718 399.002 758.038 398.325C756.528 396.988 754.558 396.299 752.538 396.405C751.148 396.354 749.768 396.63 748.508 397.211C747.248 397.792 746.148 398.662 745.288 399.75C743.378 402.308 742.418 405.452 742.578 408.64V428.69H736.718V392.16Z" fill="#232323"/>
<path d="M789.848 392.159V396.849H782.378V421.174C782.378 421.577 782.448 421.978 782.598 422.351C782.758 422.724 782.978 423.062 783.268 423.344C783.578 423.641 783.938 423.872 784.338 424.025C784.728 424.177 785.158 424.246 785.578 424.229C786.978 424.158 788.358 423.944 789.708 423.589L790.348 428.709C788.148 429.151 785.908 429.414 783.658 429.494C778.968 429.494 776.618 427.574 776.618 423.734V396.849H771.618V392.159H776.618V384.689L782.378 382.059V392.159H789.848Z" fill="#232323"/>
<path d="M1104.74 355.546C1102.66 354.345 1101.01 352.69 1099.84 350.779C1098.7 349.33 1097.83 347.629 1097.32 345.732L1054.3 184.772C1054.14 184.159 1053.32 184.05 1053 184.6L936.558 386.803L961.25 429.682C966.327 438.498 975.709 443.929 985.862 443.929H1176.19C1186.35 443.929 1195.73 438.498 1200.8 429.682L1295.97 264.425C1301.05 255.609 1301.05 244.748 1295.97 235.933L1242.85 143.684L1123.79 350.428C1119.94 357.116 1111.41 359.407 1104.74 355.546Z" fill="url(#paint0_linear_853_9)"/>
<path d="M1226.74 115.718L1116.94 306.396C1116.62 306.946 1115.8 306.837 1115.64 306.224L1073.01 146.706C1072.9 146.309 1072.78 145.921 1072.64 145.542C1072.62 145.483 1072.6 145.421 1072.6 145.359C1072.18 141.021 1069.74 136.944 1065.69 134.598C1059.02 130.737 1050.49 133.029 1046.64 139.716L920.454 358.838L866.085 264.425C861.008 255.609 861.008 244.748 866.085 235.932L961.25 70.675C966.327 61.8594 975.709 56.4287 985.862 56.4287L1176.19 56.4288C1186.35 56.4288 1195.73 61.8594 1200.8 70.6751L1226.74 115.718Z" fill="url(#paint1_linear_853_9)"/>
</g>
<defs>
<linearGradient id="paint0_linear_853_9" x1="929.073" y1="390.004" x2="1223.2" y2="111.438" gradientUnits="userSpaceOnUse">
<stop stop-color="#009F6F"/>
<stop offset="1" stop-color="#11b14e"/>
</linearGradient>
<linearGradient id="paint1_linear_853_9" x1="929.073" y1="390.004" x2="1223.2" y2="111.438" gradientUnits="userSpaceOnUse">
<stop stop-color="#009F6F"/>
<stop offset="1" stop-color="#11b14e"/>
</linearGradient>
<clipPath id="clip0_853_9">
<rect width="1299.78" height="444.929" fill="white"/>
</clipPath>
</defs>
</svg>
